<svg xmlns="http://www.w3.org/2000/svg" version="1.1" xmlns:xlink="http://www.w3.org/1999/xlink" width="1024" height="1024"><svg xmlns="http://www.w3.org/2000/svg" version="1.1" xmlns:xlink="http://www.w3.org/1999/xlink" width="1024" height="1024"><svg width="1024" height="1024" viewBox="0 0 1024 1024" fill="none" xmlns="http://www.w3.org/2000/svg">
<g clip-path="url(#clip0_5_8)">
<path d="M589.53 273.124C589.53 268.235 595.118 264.743 599.308 266.838L717.349 320.62C720.143 322.017 721.54 324.811 721.54 326.906V602.801C721.54 606.991 724.334 609.785 728.525 609.785H901.745C905.935 609.785 909.428 613.976 908.031 618.167C890.36 683.963 856.624 744.38 809.756 793.831C762.889 843.353 704.428 880.371 639.68 901.535C574.932 922.768 505.923 927.518 438.871 915.365C371.818 903.211 308.816 874.504 255.663 831.898C253.567 829.802 252.869 826.31 254.266 823.516L278.014 783.005C280.109 779.513 284.998 778.116 288.491 780.91C324.462 811.014 366.09 833.574 411.002 847.194C455.843 860.884 502.99 865.285 549.647 860.256C596.235 855.227 641.426 840.838 682.356 817.998C723.286 795.089 759.187 764.216 787.894 727.128C791.387 722.238 788.593 715.952 782.307 715.952H717.349C714.555 715.952 712.46 714.555 711.063 712.46L590.228 502.92L589.53 499.428V273.124Z" fill="#FE3635"></path>
<path d="M396.753 269.632C399.547 264.743 406.531 264.743 409.325 269.632L660.773 705.475C663.567 710.365 660.075 715.952 655.186 715.952H540.637C537.843 715.952 535.748 714.555 534.351 712.46L504.317 660.075C502.92 657.98 500.824 656.583 498.031 656.583H362.528C357.639 656.583 354.146 650.995 356.94 646.106L402.341 567.179C403.039 565.083 405.833 563.687 407.928 563.687H436.566C441.455 563.687 444.947 558.099 442.153 553.21L409.325 495.237C406.531 490.348 399.547 490.348 396.753 495.237L249.376 750.876V751.574L233.312 778.814L232.613 779.513L225.629 792.784C222.835 796.974 217.247 797.673 214.453 794.181C189.308 767.639 167.656 736.906 150.194 704.777C148.797 702.681 148.797 699.888 150.194 697.792L157.179 684.521L158.576 683.124V682.426L396.753 269.632Z" fill="#FE3635"></path>
<path d="M512 102C570.112 102.07 627.596 114.433 680.54 138.39C733.484 162.347 780.77 197.201 819.186 240.855C857.671 284.439 886.378 335.707 903.491 391.235C920.603 446.763 925.702 505.295 918.508 562.988C918.508 566.48 915.714 569.274 912.221 569.274H865.424C861.233 569.274 857.741 565.083 858.439 560.893C872.968 458.707 841.676 355.334 772.877 278.363C704.148 201.462 604.896 158.785 501.732 161.789C398.569 164.862 301.971 213.266 237.852 294.078C173.733 374.961 148.518 480.01 169.053 581.148L168.354 586.037L135.526 642.613C132.034 647.503 125.049 646.804 122.954 641.216C102.349 579.612 96.6916 513.956 106.47 449.697C116.249 385.508 141.114 324.531 179.181 271.797C217.177 219.133 267.187 176.247 325.09 146.702C382.923 117.157 447.043 101.86 512 102Z" fill="#FE3635"></path>
</g>
<defs>
<clipPath id="clip0_5_8">
<rect width="820" height="820" fill="white" transform="translate(102 102)"></rect>
</clipPath>
</defs>
</svg></svg><style>@media (prefers-color-scheme: light) { :root { filter: none; } }
@media (prefers-color-scheme: dark) { :root { filter: none; } }
</style></svg>